<?xml version="1.0" encoding="utf-8"?>
<!-- Generator: Adobe Illustrator 25.4.1, SVG Export Plug-In . SVG Version: 6.00 Build 0)  -->
<svg version="1.1" xmlns="http://www.w3.org/2000/svg" xmlns:xlink="http://www.w3.org/1999/xlink" x="0px" y="0px"
	 viewBox="0 0 612 792" style="enable-background:new 0 0 612 792;" xml:space="preserve">
<style type="text/css">
	.st0{fill:#F7F5DE;stroke:#F7F5DE;stroke-width:0.25;stroke-miterlimit:10;}
	.st1{fill:#495727;stroke:#231F20;stroke-width:1.0662;stroke-miterlimit:10;}
	.st2{fill:#495727;stroke:#231F20;stroke-width:0.6692;stroke-miterlimit:10;}
	.st3{fill:#495727;stroke:#231F20;stroke-width:0.5044;stroke-miterlimit:10;}
	.st4{fill:#495727;stroke:#231F20;stroke-miterlimit:10;}
	.st5{fill:#F5CBDF;}
	.st6{fill:#495727;stroke:#231F20;stroke-width:0.8547;stroke-miterlimit:10;}
	.st7{fill:#495727;stroke:#231F20;stroke-width:0.3476;stroke-miterlimit:10;}
	.st8{fill:#495727;stroke:#231F20;stroke-width:0.1841;stroke-miterlimit:10;}
	.st9{fill:#231F20;}
	.st10{display:none;opacity:0.58;}
	.st11{display:inline;fill:#F5CBDF;}
</style>
<g id="Layer_1">
	<rect x="1.04" y="0.49" class="st0" width="609.92" height="792"/>
	<path class="st1" d="M0,58.21c36.68,7.99,73.84,16.52,111.43,25.64c108.82,26.4,210.62,55.12,305.45,85.05"/>
	<path class="st2" d="M186.38,108.45c20.79,6.43,41.86,13.26,63.18,20.5c61.72,20.97,119.53,43.4,173.43,66.52"/>
	<path class="st3" d="M208.44,115.17c11.36,12.19,22.76,24.73,34.16,37.63c33.01,37.36,62.86,74.11,89.86,109.76"/>
	<path class="st4" d="M2.08,305.76c28.14,14.44,56.59,29.55,85.32,45.36c83.17,45.77,160.51,92.98,232.2,140.4"/>
	<path class="st4" d="M-1.74,400.46c28.14,14.44,56.59,29.55,85.32,45.36c83.17,45.77,160.51,92.98,232.2,140.4"/>
	<g>
		<g>
			<g>
				<path class="st5" d="M320.23,254.1c2.81-1.71,6.6-3.85,11.08-5.7c4.47-1.82,9.7-3.36,15.49-2.9c2.12,0.17,4.76,0.69,7.51,1.78
					c2.71,1.08,5.55,2.75,7.83,4.84c4.68,4.16,7.11,9.9,4.78,13.12c-1.99,2.8-7.08,3.56-12.83,2.89
					c-5.79-0.64-12.26-2.54-17.44-4.34c-3.98-1.43-6.78-2.52-8.62-3.24c-1.9-0.69-2.83-1.09-3.33-1.3"/>
			</g>
		</g>
	</g>
	<g>
		<g>
			<g>
				<path class="st5" d="M323.97,250.42c-5.32,3.41-14.32,8.62-24.66,10.92c-3.79,0.84-9.45,1.64-14.17,1.3
					c-4.7-0.32-8.5-1.87-8.23-5.12c0.12-1.38,1.01-2.97,2.47-4.58c1.46-1.61,3.5-3.19,5.85-4.67c4.71-2.94,10.59-5.53,15.67-6.99
					c3.95-1.11,7.01-1.27,9.32-1.03c2.3,0.24,3.85,0.88,4.64,1.26"/>
			</g>
		</g>
	</g>
	<g>
		<g>
			<g>
				<path class="st5" d="M311.12,236.36c-0.09,0.15-0.18,0.3-0.27,0.46l-0.08,0.13l0.16-0.25c0.12-0.19,0.25-0.38,0.38-0.58
					c0.52-0.78,1.08-1.6,1.7-2.43c1.23-1.7,2.75-3.34,4.52-4.99c3.54-3.21,8.28-5.99,13.89-7.18c2.06-0.45,4.67-0.76,7.47-0.75
					c2.8,0,5.75,0.34,8.41,1.04c5.33,1.37,9.46,4.29,8.77,7.79c-0.58,3.02-4.65,6.1-9.97,8.41c-5.33,2.33-11.83,4.01-17.34,4.71
					c-8.51,1.02-12.54-0.38-13.9-0.89"/>
			</g>
		</g>
	</g>
	<g>
		<g>
			<g>
				<path class="st5" d="M417.25,208.89c-2.27-6.34,0.54-18.7,3.16-16.24c2.97,2.79,6.41,5.05,9.76,8.75
					c4.34,4.81,0.82,15.21-2.89,16.47C423.95,219.01,419.06,213.94,417.25,208.89z"/>
			</g>
		</g>
	</g>
	<g>
		<g>
			<g>
				<path class="st5" d="M420.61,178.36c-3.88-3.25-6.7-12.22-4.06-11.59c3,0.71,6.11,0.92,9.7,2.09c4.66,1.52,6.28,9.49,4.32,11.64
					C428.82,182.45,423.7,180.95,420.61,178.36z"/>
			</g>
		</g>
	</g>
	<g>
		<g>
			<g>
				<path class="st5" d="M406.09,176.36c0.16-4.59,5.03-11.66,6.06-9.43c1.17,2.53,2.77,4.86,3.94,8.07
					c1.52,4.16-3.3,9.81-5.95,9.65C407.76,184.49,405.96,180.02,406.09,176.36z"/>
			</g>
		</g>
	</g>
	<g>
		<g>
			<g>
				<path class="st5" d="M363.96,377.27c-0.35,2.37-0.53,5.65-0.73,8.54c-0.23,2.88-0.54,5.39-1.92,6.01
					c-1.36,0.62-3.32-1.06-5.06-3.65c-1.77-2.57-3.2-6.03-4.19-8.39c-0.98-2.32-0.52-4.05,0.53-5.12c1.06-1.08,2.7-1.54,4.21-1.63
					c1.51-0.09,3.48,0.01,4.96,0.6C363.25,374.24,364.23,375.27,363.96,377.27z"/>
			</g>
		</g>
	</g>
	<path class="st6" d="M67.76,339.29c28.04-3.14,56.6-5.96,85.65-8.42c84.12-7.14,164.23-10.59,239.96-11.26"/>
	<path class="st7" d="M196.9,420.07c14.45-4.67,29.12-9.28,44-13.84c43.07-13.18,83.66-24.52,121.71-34.3"/>
	<path class="st8" d="M294.23,389.25c6.23,0.88,12.56,1.84,18.96,2.9c18.55,3.08,35.98,6.68,52.28,10.59"/>
	<g>
		<g>
			<g>
				<path class="st5" d="M314.58,489.13c1.15-0.89,2.75-1.96,4.57-2.51c1.82-0.57,3.83-0.63,5.81,0.1c1.98,0.74,3.15,1.86,4.06,2.91
					c0.9,1.06,1.53,2.07,2.26,2.75c0.71,0.66-0.17,0.79-1.78,0.77c-1.61-0.03-3.93-0.24-6.02-0.52c-2.09-0.29-4.81-0.72-6.76-1.33
					C314.77,490.71,313.6,489.89,314.58,489.13z"/>
			</g>
		</g>
	</g>
	<g>
		<g>
			<g>
				<path class="st5" d="M289.88,492.97c-1.83-2.5-4.96-6.7-4.49-11.8s4.19-6.86,6.15-8.75c1.92-1.85,1.93,4.34,1.45,9.44
					S291.43,495.09,289.88,492.97z"/>
			</g>
		</g>
	</g>
	<g>
		<g>
			<g>
				<path class="st5" d="M295.44,497.47c0.33-3.34,0.85-9,4.89-12.16s8.26-1.15,11.18-0.76c2.86,0.38-1.58,4.71-5.62,7.87
					S295.16,500.31,295.44,497.47z"/>
			</g>
		</g>
	</g>
	<g>
		<g>
			<g>
				<path class="st5" d="M355.04,418.72c-3.17-1.13-8.53-3-10.62-7.68s0.88-8.29,1.96-11.03c1.06-2.68,4.19,2.67,6.28,7.35
					S357.73,419.68,355.04,418.72z"/>
			</g>
		</g>
	</g>
	<g>
		<g>
			<g>
				<path class="st5" d="M301.45,585.31c-2.57-0.96-6.93-2.56-8.94-6.53c-2.02-3.98,0.01-7.05,0.64-9.38
					c0.61-2.28,3.5,2.27,5.51,6.25C300.68,579.63,303.64,586.13,301.45,585.31z"/>
			</g>
		</g>
	</g>
	<g>
		<g>
			<g>
				<path class="st5" d="M319.49,595.11c-2.57-0.96-6.93-2.56-8.94-6.53c-2.02-3.98,0.01-7.05,0.64-9.38
					c0.61-2.28,3.5,2.27,5.51,6.25C318.72,589.43,321.67,595.92,319.49,595.11z"/>
			</g>
		</g>
	</g>
	<g>
		<g>
			<g>
				<path class="st5" d="M267.67,566.79c-2.57-0.96-6.93-2.56-8.94-6.53c-2.02-3.98,0.01-7.05,0.64-9.38
					c0.61-2.28,3.5,2.27,5.51,6.25C266.89,561.11,269.85,567.6,267.67,566.79z"/>
			</g>
		</g>
	</g>
	<g>
		<g>
			<g>
				<path class="st5" d="M282.15,574.81c-2.57-0.96-6.93-2.56-8.94-6.53c-2.02-3.98,0.01-7.05,0.64-9.38
					c0.61-2.28,3.5,2.27,5.51,6.25C281.38,569.13,284.33,575.63,282.15,574.81z"/>
			</g>
		</g>
	</g>
	<g>
		<g>
			<g>
				<path class="st5" d="M205.29,436.5c-3.6-1.22-9.72-3.26-11.88-8.4s1.47-9.14,2.88-12.16c1.37-2.96,4.71,2.92,6.87,8.06
					C205.32,429.14,208.35,437.54,205.29,436.5z"/>
			</g>
		</g>
	</g>
	<g>
		<g>
			<g>
				<path class="st5" d="M176.89,424.06c-0.14-2.74-0.41-7.37,2.44-10.8c2.85-3.43,6.47-2.79,8.86-3.14
					c2.33-0.34-0.7,4.11-3.55,7.54S177.01,426.38,176.89,424.06z"/>
			</g>
		</g>
	</g>
	<g>
		<g>
			<g>
				<path class="st5" d="M170.31,419.6c-1.29-2.42-3.5-6.5-2.39-10.81c1.12-4.32,4.67-5.28,6.68-6.61c1.97-1.3,1.12,4.02,0,8.34
					C173.48,414.83,171.4,421.65,170.31,419.6z"/>
			</g>
		</g>
	</g>
	<g>
		<g>
			<g>
				<path class="st5" d="M154.04,410.6c-0.14-2.74-0.41-7.37,2.44-10.8c2.85-3.43,6.47-2.79,8.86-3.14c2.33-0.34-0.7,4.11-3.55,7.54
					S154.16,412.93,154.04,410.6z"/>
			</g>
		</g>
	</g>
	<g>
		<g>
			<g>
				<path class="st5" d="M360.68,400.9c3.32,0.53,8.93,1.4,11.83,5.62c2.9,4.22,0.64,8.31,0.07,11.2c-0.56,2.83-4.61-1.87-7.51-6.09
					C362.19,407.42,357.87,400.45,360.68,400.9z"/>
			</g>
		</g>
	</g>
	<g>
		<g>
			<g>
				<path class="st5" d="M312.82,392.09c-0.13,2.41-0.33,6.47-3.13,9.23c-2.81,2.76-5.91,1.89-8.02,2
					c-2.07,0.11,0.99-3.54,3.79-6.29C308.26,394.27,312.93,390.04,312.82,392.09z"/>
			</g>
		</g>
	</g>
	<g>
		<g>
			<g>
				<g>
					<path class="st5" d="M230.46,495.12c-2.37,0.07-6.38,0.21-8.76-2.32c-2.38-2.53-1.12-5.65-0.96-7.72
						c0.16-2.03,3.38,0.68,5.76,3.21C228.88,490.82,232.47,495.07,230.46,495.12z"/>
				</g>
			</g>
		</g>
		<g>
			<path class="st9" d="M234.23,474.68c-0.46,2.22-1.03,4.62-1.71,7.14c-0.5,1.84-1.02,3.56-1.53,5.17"/>
			<path class="st9" d="M234.28,474.69l-1.53,6.18c-0.23,1.04-0.57,2.05-0.86,3.07c-0.3,1.02-0.61,2.03-0.86,3.07l-0.1-0.03
				c0.35-1,0.65-2.02,0.95-3.04c0.29-1.02,0.64-2.03,0.85-3.07l1.44-6.2L234.28,474.69z"/>
		</g>
		<g>
			<path class="st9" d="M225.94,471.46c-0.46,2.22-1.03,4.62-1.71,7.14c-0.5,1.84-1.02,3.56-1.53,5.17"/>
			<path class="st9" d="M225.99,471.47l-1.53,6.18c-0.23,1.04-0.57,2.05-0.86,3.07c-0.3,1.02-0.61,2.03-0.86,3.07l-0.1-0.03
				c0.35-1,0.65-2.02,0.95-3.04c0.29-1.02,0.64-2.03,0.85-3.07l1.44-6.2L225.99,471.47z"/>
		</g>
		<g>
			<path class="st9" d="M223.02,463.42c-0.46,2.22-1.03,4.62-1.71,7.14c-0.5,1.84-1.02,3.56-1.53,5.17"/>
			<path class="st9" d="M223.07,463.43l-1.53,6.18c-0.23,1.04-0.57,2.05-0.86,3.07c-0.3,1.02-0.61,2.03-0.86,3.07l-0.1-0.03
				c0.35-1,0.65-2.02,0.95-3.04c0.29-1.02,0.64-2.03,0.85-3.07l1.44-6.2L223.07,463.43z"/>
		</g>
		<g>
			<path class="st9" d="M241.36,468.92c-0.46,2.22-1.03,4.62-1.71,7.14c-0.5,1.84-1.02,3.56-1.53,5.17"/>
			<path class="st9" d="M241.41,468.93l-1.53,6.18c-0.23,1.04-0.57,2.05-0.86,3.07c-0.3,1.02-0.61,2.03-0.86,3.07l-0.1-0.03
				c0.35-1,0.65-2.02,0.95-3.04c0.29-1.02,0.64-2.03,0.85-3.07l1.44-6.2L241.41,468.93z"/>
		</g>
	</g>
	<g>
		<g>
			<g>
				<g>
					<path class="st5" d="M329.37,643.17c-1.7,1.66-4.55,4.48-8.01,4.22s-4.65-3.4-5.93-5.04c-1.25-1.6,2.95-1.79,6.41-1.54
						S330.81,641.76,329.37,643.17z"/>
				</g>
			</g>
		</g>
		<g>
			<path class="st9" d="M318.3,625.57c1.17,1.95,2.37,4.09,3.58,6.42c0.88,1.69,1.67,3.31,2.37,4.84"/>
			<path class="st9" d="M318.35,625.54l3.06,5.59c0.53,0.92,0.97,1.89,1.44,2.84c0.47,0.95,0.93,1.91,1.45,2.84l-0.09,0.04
				c-0.42-0.98-0.89-1.93-1.35-2.88c-0.48-0.95-0.9-1.92-1.45-2.83l-3.14-5.54L318.35,625.54z"/>
		</g>
		<g>
			<path class="st9" d="M310.02,628.81c1.17,1.95,2.37,4.09,3.58,6.42c0.88,1.69,1.67,3.31,2.37,4.84"/>
			<path class="st9" d="M310.06,628.78l3.06,5.59c0.53,0.92,0.97,1.89,1.44,2.84c0.47,0.95,0.93,1.91,1.45,2.84l-0.09,0.04
				c-0.42-0.98-0.89-1.93-1.35-2.88c-0.48-0.95-0.9-1.92-1.45-2.83l-3.14-5.54L310.06,628.78z"/>
		</g>
		<g>
			<path class="st9" d="M302.43,624.87c1.17,1.95,2.37,4.09,3.58,6.42c0.88,1.69,1.67,3.31,2.37,4.84"/>
			<path class="st9" d="M302.47,624.84l3.06,5.59c0.53,0.92,0.97,1.89,1.44,2.84c0.47,0.95,0.93,1.91,1.45,2.84l-0.09,0.04
				c-0.42-0.98-0.89-1.93-1.35-2.88c-0.48-0.95-0.9-1.92-1.45-2.83l-3.14-5.54L302.47,624.84z"/>
		</g>
		<g>
			<path class="st9" d="M319.65,616.51c1.17,1.95,2.37,4.09,3.58,6.42c0.88,1.69,1.67,3.31,2.37,4.84"/>
			<path class="st9" d="M319.69,616.48l3.06,5.59c0.53,0.92,0.97,1.89,1.44,2.84c0.47,0.95,0.93,1.91,1.45,2.84l-0.09,0.04
				c-0.42-0.98-0.89-1.93-1.35-2.88c-0.48-0.95-0.9-1.92-1.45-2.83l-3.14-5.54L319.69,616.48z"/>
		</g>
	</g>
	<g>
		<g>
			<g>
				<g>
					<path class="st5" d="M280.28,673.05c-2.07,0.73-5.58,1.98-8.36,0.41c-2.78-1.57-2.52-4.69-2.94-6.58
						c-0.41-1.84,3.17-0.35,5.96,1.22C277.72,669.68,282.04,672.43,280.28,673.05z"/>
				</g>
			</g>
		</g>
		<g>
			<path class="st9" d="M277.74,654.59c0.28,1.92,0.52,4.02,0.68,6.26c0.12,1.64,0.19,3.19,0.22,4.64"/>
			<path class="st9" d="M277.79,654.58l0.55,5.45c0.12,0.91,0.12,1.82,0.18,2.73c0.04,0.91,0.08,1.82,0.18,2.73l-0.09,0
				c0.01-0.91-0.04-1.82-0.08-2.74c-0.05-0.91-0.05-1.83-0.18-2.73l-0.63-5.44L277.79,654.58z"/>
		</g>
		<g>
			<path class="st9" d="M269.03,655.15c0.28,1.92,0.52,4.02,0.68,6.26c0.12,1.64,0.19,3.19,0.22,4.64"/>
			<path class="st9" d="M269.08,655.14l0.55,5.45c0.12,0.91,0.12,1.82,0.18,2.73c0.04,0.91,0.08,1.82,0.18,2.73l-0.09,0
				c0.01-0.91-0.04-1.82-0.08-2.74c-0.05-0.91-0.05-1.83-0.18-2.73l-0.63-5.44L269.08,655.14z"/>
		</g>
		<g>
			<path class="st9" d="M263.77,649.91c0.28,1.92,0.52,4.02,0.68,6.26c0.12,1.64,0.19,3.19,0.22,4.64"/>
			<path class="st9" d="M263.82,649.91l0.55,5.45c0.12,0.91,0.12,1.82,0.18,2.73c0.04,0.91,0.08,1.82,0.18,2.73l-0.09,0
				c0.01-0.91-0.04-1.82-0.08-2.74c-0.05-0.91-0.05-1.83-0.18-2.73l-0.63-5.44L263.82,649.91z"/>
		</g>
		<g>
			<path class="st9" d="M282.53,647.39c0.28,1.92,0.52,4.02,0.68,6.26c0.12,1.64,0.19,3.19,0.22,4.64"/>
			<path class="st9" d="M282.57,647.38l0.55,5.45c0.12,0.91,0.12,1.82,0.18,2.73c0.04,0.91,0.08,1.82,0.18,2.73l-0.09,0
				c0.01-0.91-0.04-1.82-0.08-2.74c-0.05-0.91-0.05-1.83-0.18-2.73l-0.63-5.44L282.57,647.38z"/>
		</g>
	</g>
</g>
<g id="Layer_2" class="st10">
	<path class="st11" d="M231.2,157.04c-9.72,39.57-26.05,106.92-47.52,106.92s-30.24-68.04-38.88-102.3
		c-8.46-33.54,17.38-44.58,38.85-44.58S239.45,123.46,231.2,157.04z"/>
	<path class="st11" d="M401.84,245.6c3.93-15.41,12.65-40.52,33.48-63.72c15.29-17.03,50.56-48.01,68.04-37.8
		c14.99,8.76,15.02,46.72-2.16,71.28c-13.31,19.03-33.56,25.14-41.04,27"/>
	<path class="st11" d="M233.09,377.3c21.06-40.71,91.26-81.54,90.12-56.45c-1.29,28.44,1.79,56.98-2.37,91.58
		c-5.4,44.86-69.18,73.02-90.12,58.96C211.86,458.71,216.32,409.73,233.09,377.3z"/>
</g>
</svg>
